<svg width="54" height="54" viewBox="0 0 54 54" fill="none" xmlns="http://www.w3.org/2000/svg">
<path d="M26.9985 40.4941C34.4544 40.4941 40.4985 34.45 40.4985 26.9941C40.4985 19.5383 34.4544 13.4941 26.9985 13.4941C19.5427 13.4941 13.4985 19.5383 13.4985 26.9941C13.4985 34.45 19.5427 40.4941 26.9985 40.4941Z" fill="white"/>
<path d="M26.9987 13.5001H50.3776C48.0085 9.39536 44.6006 5.98674 40.4963 3.61693C36.3921 1.24712 31.7362 -0.000330604 26.9969 6.57223e-08C22.2576 0.000330736 17.602 1.24843 13.498 3.61881C9.39413 5.98919 5.98662 9.39829 3.61816 13.5033L15.3076 33.7501L15.3181 33.7474C14.1289 31.6968 13.5014 29.369 13.4987 26.9986C13.4961 24.6281 14.1184 22.2989 15.3029 20.2457C16.4874 18.1924 18.1923 16.4877 20.2456 15.3035C22.299 14.1192 24.6283 13.4971 26.9987 13.5001Z" fill="url(#paint0_linear_2499_123)"/>
<path d="M26.9985 37.6875C32.9011 37.6875 37.686 32.9025 37.686 27C37.686 21.0975 32.9011 16.3125 26.9985 16.3125C21.096 16.3125 16.311 21.0975 16.311 27C16.311 32.9025 21.096 37.6875 26.9985 37.6875Z" fill="#1A73E8"/>
<path d="M38.6889 33.7527L26.9995 53.9995C31.7387 54.0001 36.3946 52.753 40.4991 50.3835C44.6035 48.014 48.0117 44.6056 50.381 40.5011C52.7503 36.3966 53.9973 31.7406 53.9964 27.0014C53.9956 22.2621 52.747 17.6066 50.3762 13.5029H26.9974L26.9946 13.5134C29.365 13.5088 31.6948 14.1292 33.749 15.3121C35.8032 16.495 37.5092 18.1986 38.6951 20.251C39.881 22.3034 40.5048 24.6323 40.5038 27.0027C40.5027 29.3731 39.8767 31.7014 38.6889 33.7527Z" fill="url(#paint1_linear_2499_123)"/>
<path d="M15.3078 33.7536L3.61836 13.5068C1.24812 17.6108 0.000176638 22.2665 1.87499e-08 27.0058C-0.0001766 31.7451 1.24742 36.4009 3.61735 40.5051C5.98729 44.6093 9.39601 48.0172 13.5008 50.3861C17.6055 52.755 22.2616 54.0014 27.0009 54.0001L38.6904 33.7534L38.6828 33.7457C37.5015 35.8008 35.7993 37.5082 33.7478 38.6957C31.6963 39.8832 29.368 40.5089 26.9976 40.5097C24.6272 40.5105 22.2984 39.8864 20.2461 38.7002C18.1938 37.5141 16.4905 35.8079 15.3078 33.7536Z" fill="url(#paint2_linear_2499_123)"/>
<defs>
<linearGradient id="paint0_linear_2499_123" x1="3.61816" y1="16.8751" x2="50.3776" y2="16.8751" gradientUnits="userSpaceOnUse">
<stop stop-color="#D93025"/>
<stop offset="1" stop-color="#EA4335"/>
</linearGradient>
<linearGradient id="paint1_linear_2499_123" x1="23.3108" y1="53.6384" x2="46.6906" y2="13.1436" gradientUnits="userSpaceOnUse">
<stop stop-color="#FCC934"/>
<stop offset="1" stop-color="#FBBC04"/>
</linearGradient>
<linearGradient id="paint2_linear_2499_123" x1="29.921" y1="52.3143" x2="6.54122" y2="11.8193" gradientUnits="userSpaceOnUse">
<stop stop-color="#1E8E3E"/>
<stop offset="1" stop-color="#34A853"/>
</linearGradient>
</defs>
</svg>
