<svg width="57" height="59" viewBox="0 0 57 59" fill="none" xmlns="http://www.w3.org/2000/svg">
<path d="M54.6078 19.6484C53.3754 16.683 50.8754 13.4811 48.9177 12.469C50.3137 15.1724 51.2827 18.0756 51.7902 21.0756L51.7953 21.1231C48.5883 13.1313 43.1521 9.90385 38.7098 2.88539C38.4851 2.53045 38.2604 2.17477 38.0416 1.79933C37.9165 1.58489 37.8162 1.39169 37.7291 1.21385C37.5449 0.857107 37.4029 0.480095 37.3061 0.0904537C37.3062 0.0724737 37.2998 0.0550751 37.2879 0.0415769C37.276 0.0280788 37.2596 0.0194257 37.2417 0.0172686C37.2242 0.012473 37.2058 0.012473 37.1883 0.0172686C37.1846 0.0172686 37.1788 0.0238552 37.1744 0.0253189C37.17 0.0267826 37.1605 0.0333693 37.1539 0.0362967L37.1649 0.0172686C30.0403 4.18882 27.6215 11.9099 27.402 15.774C24.5558 15.9692 21.8345 17.0176 19.5931 18.7827C19.3594 18.5847 19.1151 18.3995 18.8613 18.2279C18.215 15.9657 18.1875 13.5716 18.7815 11.2951C16.165 12.5625 13.8402 14.3593 11.9541 16.5717H11.9409C10.8168 15.1468 10.8958 10.4483 10.9602 9.46693C10.6276 9.60058 10.3102 9.76912 10.0132 9.96971C9.02082 10.678 8.09311 11.4727 7.24094 12.3446C6.26983 13.3291 5.3829 14.3933 4.58944 15.5259V15.5303V15.5252C2.76606 18.1098 1.47263 21.03 0.783813 24.1171L0.745756 24.3045C0.692331 24.554 0.499854 25.804 0.466921 26.0756C0.466921 26.0968 0.46253 26.1165 0.460334 26.1378C0.212053 27.4283 0.0581999 28.7352 0 30.0481V30.1944C0.0125354 37.2923 2.68559 44.1276 7.49149 49.351C12.2974 54.5743 18.8869 57.8062 25.9592 58.4085C33.0315 59.0109 40.0726 56.94 45.6927 52.6046C51.3127 48.2693 55.1032 41.9845 56.316 34.991C56.3635 34.625 56.4023 34.2628 56.4448 33.8932C57.029 29.0644 56.3965 24.1661 54.6049 19.6441L54.6078 19.6484ZM21.916 41.8528C22.0485 41.9165 22.1729 41.9853 22.309 42.046L22.3288 42.0585C22.1912 41.9926 22.0536 41.924 21.916 41.8528ZM51.796 21.1312V21.1041L51.8012 21.1341L51.796 21.1312Z" fill="url(#paint0_linear_2499_125)"/>
<path d="M54.6078 19.6492C53.3754 16.6837 50.8754 13.4819 48.9177 12.4697C50.3137 15.1731 51.2827 18.0764 51.7902 21.0763V21.1034L51.7953 21.1334C53.9819 27.39 53.6657 34.2497 50.9127 40.2786C47.6618 47.2539 39.7959 54.4033 27.4788 54.052C14.1738 53.6751 2.44951 43.7988 0.261275 30.867C-0.137583 28.8273 0.261275 27.7932 0.461803 26.1356C0.188274 27.4232 0.0356294 28.7335 0.00585938 30.0495V30.1959C0.0183948 37.2938 2.69145 44.1291 7.49735 49.3524C12.3032 54.5758 18.8927 57.8077 25.965 58.41C33.0373 59.0124 40.0785 56.9415 45.6985 52.6061C51.3186 48.2707 55.1091 41.986 56.3218 34.9924C56.3694 34.6265 56.4082 34.2643 56.4506 33.8947C57.0349 29.0658 56.4024 24.1676 54.6107 19.6455L54.6078 19.6492Z" fill="url(#paint1_radial_2499_125)"/>
<path d="M54.6078 19.6492C53.3754 16.6837 50.8754 13.4819 48.9177 12.4697C50.3137 15.1731 51.2827 18.0764 51.7902 21.0763V21.1034L51.7953 21.1334C53.9819 27.39 53.6657 34.2497 50.9127 40.2786C47.6618 47.2539 39.7959 54.4033 27.4788 54.052C14.1738 53.6751 2.44951 43.7988 0.261275 30.867C-0.137583 28.8273 0.261275 27.7932 0.461803 26.1356C0.188274 27.4232 0.0356294 28.7335 0.00585938 30.0495V30.1959C0.0183948 37.2938 2.69145 44.1291 7.49735 49.3524C12.3032 54.5758 18.8927 57.8077 25.965 58.41C33.0373 59.0124 40.0785 56.9415 45.6985 52.6061C51.3186 48.2707 55.1091 41.986 56.3218 34.9924C56.3694 34.6265 56.4082 34.2643 56.4506 33.8947C57.0349 29.0658 56.4024 24.1676 54.6107 19.6455L54.6078 19.6492Z" fill="url(#paint2_radial_2499_125)"/>
<path d="M40.8196 22.9782C40.8811 23.0214 40.9382 23.0645 40.996 23.1077C40.2835 21.8443 39.3966 20.6876 38.3613 19.6717C29.5425 10.8529 36.0509 0.555729 37.1479 0.028796L37.1589 0.0126953C30.0343 4.18425 27.6156 11.9053 27.396 15.7695C27.7268 15.7468 28.0547 15.719 28.3928 15.719C30.9205 15.7238 33.4018 16.3979 35.5845 17.6727C37.7672 18.9475 39.5735 20.7775 40.8196 22.9767V22.9782Z" fill="url(#paint3_radial_2499_125)"/>
<path d="M28.4078 24.7422C28.3609 25.4477 25.8682 27.8811 24.9966 27.8811C16.9316 27.8811 15.6216 32.7604 15.6216 32.7604C15.9787 36.869 18.8417 40.2545 22.3027 42.0403C22.4607 42.1222 22.621 42.1961 22.7813 42.2686C23.0589 42.3916 23.3365 42.5052 23.6141 42.6096C24.8019 43.03 26.046 43.27 27.3049 43.3217C41.4442 43.9848 44.1813 26.416 33.9786 21.315C36.3853 21.0018 38.8226 21.5936 40.8178 22.9755C39.5716 20.7764 37.7654 18.9463 35.5827 17.6716C33.4 16.3968 30.9186 15.7227 28.3909 15.7178C28.0543 15.7178 27.7249 15.7456 27.3941 15.7683C24.5479 15.9634 21.8266 17.0119 19.5853 18.7769C20.0178 19.1428 20.506 19.6317 21.5342 20.6453C23.459 22.5416 28.3953 24.5058 28.4063 24.7364L28.4078 24.7422Z" fill="url(#paint4_radial_2499_125)"/>
<path d="M28.4078 24.7422C28.3609 25.4477 25.8682 27.8811 24.9966 27.8811C16.9316 27.8811 15.6216 32.7604 15.6216 32.7604C15.9787 36.869 18.8417 40.2545 22.3027 42.0403C22.4607 42.1222 22.621 42.1961 22.7813 42.2686C23.0589 42.3916 23.3365 42.5052 23.6141 42.6096C24.8019 43.03 26.046 43.27 27.3049 43.3217C41.4442 43.9848 44.1813 26.416 33.9786 21.315C36.3853 21.0018 38.8226 21.5936 40.8178 22.9755C39.5716 20.7764 37.7654 18.9463 35.5827 17.6716C33.4 16.3968 30.9186 15.7227 28.3909 15.7178C28.0543 15.7178 27.7249 15.7456 27.3941 15.7683C24.5479 15.9634 21.8266 17.0119 19.5853 18.7769C20.0178 19.1428 20.506 19.6317 21.5342 20.6453C23.459 22.5416 28.3953 24.5058 28.4063 24.7364L28.4078 24.7422Z" fill="url(#paint5_radial_2499_125)"/>
<path d="M18.2641 17.8411C18.4939 17.9875 18.6835 18.1148 18.8496 18.2297C18.2034 15.9675 18.1758 13.5734 18.7698 11.2969C16.1534 12.5643 13.8285 14.3611 11.9424 16.5735C12.0807 16.5699 16.1952 16.4959 18.2641 17.8411Z" fill="url(#paint6_radial_2499_125)"/>
<path d="M0.256005 30.8683C2.44497 43.8001 14.1685 53.6801 27.4736 54.0534C39.7906 54.4017 47.658 47.2516 50.9074 40.2799C53.6604 34.251 53.9767 27.3913 51.79 21.1347V21.1076C51.79 21.0864 51.7857 21.074 51.79 21.0806L51.7952 21.1281C52.8015 27.698 49.4598 34.0599 44.2351 38.3705L44.219 38.4071C34.039 46.699 24.298 43.4086 22.3294 42.0664C22.1918 42.0005 22.0542 41.932 21.9166 41.8607C15.982 39.0241 13.5296 33.6201 14.0565 28.9802C12.6478 29.0009 11.2633 28.6127 10.0707 27.8626C8.8781 27.1124 7.92866 26.0325 7.3374 24.7537C8.89536 23.7993 10.6718 23.2598 12.4973 23.1865C14.3229 23.1133 16.1368 23.5087 17.7663 24.3351C21.1249 25.8596 24.9467 26.0099 28.4147 24.7537C28.4037 24.5232 23.4674 22.5582 21.5426 20.6627C20.5144 19.6491 20.0262 19.1609 19.5937 18.7943C19.36 18.5963 19.1156 18.4111 18.8619 18.2395C18.6935 18.1246 18.504 18.0002 18.2764 17.8509C16.2074 16.5058 12.093 16.5797 11.9568 16.5833H11.9437C10.8195 15.1584 10.8986 10.4599 10.963 9.47852C10.6304 9.61217 10.313 9.7807 10.016 9.9813C9.0236 10.6895 8.0959 11.4843 7.24372 12.3562C6.26914 13.3379 5.37853 14.3997 4.58125 15.5302C2.75786 18.1148 1.46444 21.0342 0.775619 24.1214C0.761714 24.1792 -0.246045 28.585 0.250882 30.8698L0.256005 30.8683Z" fill="url(#paint7_radial_2499_125)"/>
<path d="M38.3608 19.6706C39.3964 20.6877 40.2833 21.8456 40.9955 23.1103C41.1514 23.2282 41.297 23.3453 41.4207 23.4587C47.8515 29.3867 44.4821 37.7664 44.231 38.3592C49.455 34.0552 52.7937 27.6888 51.7911 21.1168C48.5826 13.1176 43.1406 9.89017 38.7055 2.87172C38.4809 2.51677 38.2562 2.16109 38.0374 1.78565C37.9122 1.57122 37.812 1.37801 37.7249 1.20017C37.5407 0.843435 37.3987 0.466423 37.3019 0.0767818C37.302 0.0588018 37.2955 0.0414032 37.2836 0.0279051C37.2717 0.0144069 37.2553 0.00575387 37.2375 0.00359668C37.22 -0.00119889 37.2015 -0.00119889 37.184 0.00359668C37.1804 0.00359668 37.1745 0.0101833 37.1701 0.011647C37.1657 0.0131107 37.1562 0.0196974 37.1496 0.0226248C36.0526 0.542971 29.5457 10.8467 38.3645 19.6582L38.3608 19.6706Z" fill="url(#paint8_radial_2499_125)"/>
<path d="M41.4199 23.4616C41.2962 23.3481 41.1506 23.231 40.9947 23.1132C40.9369 23.07 40.8798 23.0268 40.8183 22.9837C38.8232 21.6017 36.3859 21.0099 33.9792 21.3231C44.1812 26.4241 41.4441 43.9885 27.3054 43.3299C26.0465 43.2781 24.8025 43.0381 23.6147 42.6178C23.3371 42.5138 23.0595 42.4002 22.7819 42.2767C22.6216 42.2035 22.4613 42.1304 22.3032 42.0484L22.323 42.0608C24.2946 43.4067 34.0326 46.6949 44.2127 38.4016L44.2288 38.365C44.4827 37.7722 47.8521 29.3925 41.4184 23.4645L41.4199 23.4616Z" fill="url(#paint9_radial_2499_125)"/>
<path d="M15.6222 32.7561C15.6222 32.7561 16.9315 27.8768 24.9972 27.8768C25.8688 27.8768 28.3637 25.4434 28.4084 24.7379C24.9404 25.9941 21.1186 25.8438 17.7599 24.3193C16.1305 23.4929 14.3166 23.0974 12.491 23.1707C10.6654 23.244 8.88902 23.7835 7.33105 24.7379C7.92232 26.0167 8.87175 27.0966 10.0643 27.8468C11.2569 28.5969 12.6414 28.9851 14.0502 28.9643C13.5247 33.6021 15.9764 39.0053 21.9103 41.8449C22.0427 41.9086 22.1671 41.9774 22.3033 42.0381C18.8394 40.2488 15.9793 36.8647 15.6222 32.7583V32.7561Z" fill="url(#paint10_radial_2499_125)"/>
<path d="M54.6078 19.6484C53.3754 16.683 50.8754 13.4811 48.9177 12.469C50.3137 15.1724 51.2827 18.0756 51.7902 21.0756L51.7953 21.1231C48.5883 13.1313 43.1521 9.90385 38.7098 2.88539C38.4851 2.53045 38.2605 2.17477 38.0416 1.79933C37.9165 1.58489 37.8162 1.39169 37.7291 1.21385C37.5449 0.857107 37.403 0.480095 37.3061 0.0904537C37.3062 0.0724737 37.2998 0.0550751 37.2879 0.0415769C37.276 0.0280788 37.2596 0.0194257 37.2417 0.0172686C37.2242 0.012473 37.2058 0.012473 37.1883 0.0172686C37.1846 0.0172686 37.1788 0.0238552 37.1744 0.0253189C37.17 0.0267826 37.1605 0.0333693 37.1539 0.0362967L37.1649 0.0172686C30.0403 4.18882 27.6215 11.9099 27.402 15.774C27.7328 15.7513 28.0606 15.7235 28.3988 15.7235C30.9265 15.7284 33.4078 16.4025 35.5905 17.6773C37.7732 18.9521 39.5794 20.7821 40.8256 22.9813C38.8304 21.5993 36.3932 21.0076 33.9864 21.3207C44.1884 26.4217 41.4513 43.9862 27.3127 43.3275C26.0538 43.2757 24.8097 43.0357 23.622 42.6154C23.3443 42.5115 23.0667 42.3978 22.7891 42.2744C22.6288 42.2012 22.4686 42.128 22.3105 42.046L22.3302 42.0585C22.1927 41.9926 22.0551 41.924 21.9175 41.8528C22.0499 41.9165 22.1744 41.9853 22.3105 42.046C18.8466 40.2559 15.9866 36.8718 15.6294 32.7661C15.6294 32.7661 16.9387 27.8869 25.0044 27.8869C25.8761 27.8869 28.3709 25.4535 28.4156 24.748C28.4046 24.5175 23.4683 22.5524 21.5435 20.6569C20.5153 19.6433 20.0271 19.1552 19.5946 18.7885C19.3608 18.5905 19.1165 18.4053 18.8627 18.2338C18.2165 15.9716 18.189 13.5774 18.783 11.301C16.1665 12.5684 13.8416 14.3652 11.9555 16.5776H11.9423C10.8182 15.1527 10.8973 10.4542 10.9617 9.47279C10.6291 9.60644 10.3117 9.77497 10.0147 9.97557C9.02228 10.6838 8.09458 11.4785 7.2424 12.3504C6.2713 13.335 5.38436 14.3992 4.5909 15.5318C2.76752 18.1164 1.47409 21.0358 0.785277 24.123L0.747221 24.3103C0.693796 24.5599 0.454481 25.8275 0.420084 26.0997C0.201188 27.4082 0.0613943 28.7286 0.00146484 30.0539V30.2003C0.0140002 37.2982 2.68706 44.1335 7.49296 49.3568C12.2989 54.5802 18.8884 57.812 25.9606 58.4144C33.0329 59.0168 40.0741 56.9459 45.6941 52.6105C51.3142 48.2751 55.1047 41.9904 56.3174 34.9968C56.365 34.6309 56.4038 34.2686 56.4462 33.8991C57.0305 29.0702 56.398 24.172 54.6063 19.6499L54.6078 19.6484Z" fill="url(#paint11_linear_2499_125)"/>
<defs>
<linearGradient id="paint0_linear_2499_125" x1="50.8534" y1="9.07753" x2="3.76391" y2="54.5108" gradientUnits="userSpaceOnUse">
<stop offset="0.048" stop-color="#FFF44F"/>
<stop offset="0.111" stop-color="#FFE847"/>
<stop offset="0.225" stop-color="#FFC830"/>
<stop offset="0.368" stop-color="#FF980E"/>
<stop offset="0.401" stop-color="#FF8B16"/>
<stop offset="0.462" stop-color="#FF672A"/>
<stop offset="0.534" stop-color="#FF3647"/>
<stop offset="0.705" stop-color="#E31587"/>
</linearGradient>
<radialGradient id="paint1_radial_2499_125" cx="0" cy="0" r="1" gradientUnits="userSpaceOnUse" gradientTransform="translate(49.0311 6.60028) scale(59.1336)">
<stop offset="0.129" stop-color="#FFBD4F"/>
<stop offset="0.186" stop-color="#FFAC31"/>
<stop offset="0.247" stop-color="#FF9D17"/>
<stop offset="0.283" stop-color="#FF980E"/>
<stop offset="0.403" stop-color="#FF563B"/>
<stop offset="0.467" stop-color="#FF3750"/>
<stop offset="0.71" stop-color="#F5156C"/>
<stop offset="0.782" stop-color="#EB0878"/>
<stop offset="0.86" stop-color="#E50080"/>
</radialGradient>
<radialGradient id="paint2_radial_2499_125" cx="0" cy="0" r="1" gradientUnits="userSpaceOnUse" gradientTransform="translate(27.0756 30.7514) scale(59.1336)">
<stop offset="0.3" stop-color="#960E18"/>
<stop offset="0.351" stop-color="#B11927" stop-opacity="0.74"/>
<stop offset="0.435" stop-color="#DB293D" stop-opacity="0.343"/>
<stop offset="0.497" stop-color="#F5334B" stop-opacity="0.094"/>
<stop offset="0.53" stop-color="#FF3750" stop-opacity="0"/>
</radialGradient>
<radialGradient id="paint3_radial_2499_125" cx="0" cy="0" r="1" gradientUnits="userSpaceOnUse" gradientTransform="translate(34.394 -6.57397) scale(42.8353 42.8352)">
<stop offset="0.132" stop-color="#FFF44F"/>
<stop offset="0.252" stop-color="#FFDC3E"/>
<stop offset="0.506" stop-color="#FF9D12"/>
<stop offset="0.526" stop-color="#FF980E"/>
</radialGradient>
<radialGradient id="paint4_radial_2499_125" cx="0" cy="0" r="1" gradientUnits="userSpaceOnUse" gradientTransform="translate(20.4891 46.1196) scale(28.1543 28.1543)">
<stop offset="0.353" stop-color="#3A8EE6"/>
<stop offset="0.472" stop-color="#5C79F0"/>
<stop offset="0.669" stop-color="#9059FF"/>
<stop offset="1" stop-color="#C139E6"/>
</radialGradient>
<radialGradient id="paint5_radial_2499_125" cx="0" cy="0" r="1" gradientUnits="userSpaceOnUse" gradientTransform="translate(29.9359 25.6746) rotate(-13.5916) scale(14.9298 17.4791)">
<stop offset="0.206" stop-color="#9059FF" stop-opacity="0"/>
<stop offset="0.278" stop-color="#8C4FF3" stop-opacity="0.064"/>
<stop offset="0.747" stop-color="#7716A8" stop-opacity="0.45"/>
<stop offset="0.975" stop-color="#6E008B" stop-opacity="0.6"/>
</radialGradient>
<radialGradient id="paint6_radial_2499_125" cx="0" cy="0" r="1" gradientUnits="userSpaceOnUse" gradientTransform="translate(26.3437 4.4043) scale(20.2576 20.2576)">
<stop stop-color="#FFE226"/>
<stop offset="0.121" stop-color="#FFDB27"/>
<stop offset="0.295" stop-color="#FFC82A"/>
<stop offset="0.502" stop-color="#FFA930"/>
<stop offset="0.732" stop-color="#FF7E37"/>
<stop offset="0.792" stop-color="#FF7139"/>
</radialGradient>
<radialGradient id="paint7_radial_2499_125" cx="0" cy="0" r="1" gradientUnits="userSpaceOnUse" gradientTransform="translate(42.4443 -8.76874) scale(86.4316)">
<stop offset="0.113" stop-color="#FFF44F"/>
<stop offset="0.456" stop-color="#FF980E"/>
<stop offset="0.622" stop-color="#FF5634"/>
<stop offset="0.716" stop-color="#FF3647"/>
<stop offset="0.904" stop-color="#E31587"/>
</radialGradient>
<radialGradient id="paint8_radial_2499_125" cx="0" cy="0" r="1" gradientUnits="userSpaceOnUse" gradientTransform="translate(35.2607 -3.97694) rotate(83.976) scale(63.3383 41.5684)">
<stop stop-color="#FFF44F"/>
<stop offset="0.06" stop-color="#FFE847"/>
<stop offset="0.168" stop-color="#FFC830"/>
<stop offset="0.304" stop-color="#FF980E"/>
<stop offset="0.356" stop-color="#FF8B16"/>
<stop offset="0.455" stop-color="#FF672A"/>
<stop offset="0.57" stop-color="#FF3647"/>
<stop offset="0.737" stop-color="#E31587"/>
</radialGradient>
<radialGradient id="paint9_radial_2499_125" cx="0" cy="0" r="1" gradientUnits="userSpaceOnUse" gradientTransform="translate(26.3438 11.7227) scale(53.9521 53.9521)">
<stop offset="0.137" stop-color="#FFF44F"/>
<stop offset="0.48" stop-color="#FF980E"/>
<stop offset="0.592" stop-color="#FF5634"/>
<stop offset="0.655" stop-color="#FF3647"/>
<stop offset="0.904" stop-color="#E31587"/>
</radialGradient>
<radialGradient id="paint10_radial_2499_125" cx="0" cy="0" r="1" gradientUnits="userSpaceOnUse" gradientTransform="translate(40.249 14.6501) scale(59.0531 59.0531)">
<stop offset="0.094" stop-color="#FFF44F"/>
<stop offset="0.231" stop-color="#FFE141"/>
<stop offset="0.509" stop-color="#FFAF1E"/>
<stop offset="0.626" stop-color="#FF980E"/>
</radialGradient>
<linearGradient id="paint11_linear_2499_125" x1="50.2826" y1="8.83601" x2="10.221" y2="48.9049" gradientUnits="userSpaceOnUse">
<stop offset="0.167" stop-color="#FFF44F" stop-opacity="0.8"/>
<stop offset="0.266" stop-color="#FFF44F" stop-opacity="0.634"/>
<stop offset="0.489" stop-color="#FFF44F" stop-opacity="0.217"/>
<stop offset="0.6" stop-color="#FFF44F" stop-opacity="0"/>
</linearGradient>
</defs>
</svg>
