<svg width="199" height="199" viewBox="0 0 199 199" fill="none" xmlns="http://www.w3.org/2000/svg">
<path d="M194.005 80.83L186.072 78.4729C183.271 77.6426 180.223 74.6928 179.3 71.9217L177.233 66.5642C176.046 63.8957 176.294 59.6546 177.787 57.1442L181.942 50.1367C183.434 47.6263 182.998 43.8463 180.977 41.739L161.543 21.5278C159.517 19.4205 155.757 18.8339 153.189 20.2292L146.419 23.8958C143.849 25.2886 139.617 25.3417 137.014 24.0129L130.475 21.1175C127.745 20.0723 124.925 16.898 124.2 14.0654L122.094 5.80519C121.373 2.97496 118.394 0.610593 115.472 0.552661L87.4335 0.00109542C84.5129 -0.056837 81.4413 2.19046 80.6097 4.98931L78.1802 13.1602C77.3463 15.9615 74.4039 19.0271 71.6389 19.9733L64.453 22.8566C61.8099 24.0961 57.5833 23.8898 55.073 22.398L48.8382 18.6927C46.3242 17.1998 42.5442 17.6355 40.4381 19.6643L20.2214 39.0958C18.119 41.1186 17.5349 44.8806 18.9264 47.4489L22.739 54.4865C24.1305 57.0573 24.2235 61.2996 22.943 63.9162C21.6625 66.5316 16.655 74.3682 13.8224 75.0875L5.80503 77.1308C2.97485 77.8538 0.609338 80.8361 0.551407 83.7568L0.00105126 111.791C-0.0556729 114.714 2.19037 117.784 4.99037 118.616L12.9233 120.975C15.7257 121.805 18.7755 124.755 19.7012 127.528L21.9364 133.272C23.1337 135.941 22.8959 140.177 21.4006 142.689L17.6435 149.014C16.1493 151.529 16.5875 155.308 18.6126 157.415L38.0485 177.627C40.0737 179.735 43.8331 180.32 46.405 178.928L52.6085 175.566C55.1768 174.172 59.413 174.122 62.0175 175.445L68.6566 178.375C71.3854 179.418 74.2144 182.585 74.9325 185.42L76.9142 193.195C77.636 196.029 80.6158 198.393 83.5377 198.45L111.575 198.999C114.498 199.058 117.566 196.813 118.399 194.011L120.685 186.319C121.514 183.515 124.464 180.464 127.238 179.54L133.449 177.11C136.113 175.907 140.351 176.142 142.86 177.636L149.308 181.465C151.82 182.959 155.602 182.522 157.705 180.494L177.922 161.063C180.027 159.035 180.612 155.277 179.218 152.71L175.643 146.111C174.253 143.542 174.183 139.3 175.495 136.688L178.14 130.641C179.178 127.906 182.343 125.078 185.175 124.358L193.195 122.314C196.023 121.592 198.391 118.614 198.448 115.691L198.999 87.6552C199.05 84.7369 196.803 81.6628 194.005 80.83ZM98.4899 150.851C70.1339 150.293 47.5939 126.85 48.1514 98.4934C48.709 70.1307 72.1518 47.5901 100.508 48.1465C128.866 48.7053 151.405 72.1511 150.848 100.511C150.29 128.87 126.848 151.409 98.4899 150.851Z" fill="white"/>
</svg>
