<svg width="47" height="51" viewBox="0 0 47 51" fill="none" xmlns="http://www.w3.org/2000/svg">
<path d="M23.5002 29.3421C25.8138 29.3421 27.6893 27.4666 27.6893 25.153C27.6893 22.8394 25.8138 20.9639 23.5002 20.9639C21.1866 20.9639 19.311 22.8394 19.311 25.153C19.311 27.4666 21.1866 29.3421 23.5002 29.3421Z" fill="#61DAFB"/>
<path fill-rule="evenodd" clip-rule="evenodd" d="M3.47284 22.5718C2.46169 23.4846 2.04348 24.359 2.04348 25.1542C2.04348 25.9493 2.46169 26.8237 3.47284 27.7365C4.48388 28.6491 6.00425 29.5179 7.96992 30.2684C11.8943 31.7668 17.3847 32.715 23.5 32.715C29.6153 32.715 35.1057 31.7668 39.0301 30.2684C40.9958 29.5179 42.5161 28.6491 43.5272 27.7365C44.5383 26.8237 44.9565 25.9493 44.9565 25.1542C44.9565 24.359 44.5383 23.4846 43.5272 22.5718C42.5161 21.6592 40.9958 20.7904 39.0301 20.0399C35.1057 18.5415 29.6153 17.5933 23.5 17.5933C17.3847 17.5933 11.8943 18.5415 7.96992 20.0399C6.00425 20.7904 4.48388 21.6592 3.47284 22.5718ZM7.24101 18.1308C11.4522 16.5229 17.2009 15.5498 23.5 15.5498C29.7991 15.5498 35.5478 16.5229 39.759 18.1308C41.8611 18.9334 43.6326 19.9141 44.8965 21.055C46.1602 22.1958 47 23.5793 47 25.1542C47 26.729 46.1602 28.1125 44.8965 29.2533C43.6326 30.3942 41.8611 31.3749 39.759 32.1775C35.5478 33.7854 29.7991 34.7585 23.5 34.7585C17.2009 34.7585 11.4522 33.7854 7.24101 32.1775C5.13893 31.3749 3.36743 30.3942 2.10355 29.2533C0.839771 28.1125 0 26.729 0 25.1542C0 23.5793 0.839771 22.1958 2.10355 21.055C3.36743 19.9141 5.13893 18.9334 7.24101 18.1308Z" fill="#61DAFB"/>
<path fill-rule="evenodd" clip-rule="evenodd" d="M15.723 6.51858C14.427 6.09929 13.4606 6.17429 12.772 6.57188C12.0834 6.96947 11.5353 7.76882 11.2503 9.1009C10.9654 10.4328 10.9733 12.1839 11.3061 14.2615C11.9706 18.4092 13.8947 23.6382 16.9524 28.9342C20.01 34.2302 23.5764 38.511 26.8362 41.1604C28.469 42.4874 29.9816 43.3697 31.2775 43.789C32.5736 44.2082 33.5399 44.1333 34.2285 43.7357C34.9172 43.3381 35.4653 42.5387 35.7502 41.2066C36.0351 39.8747 36.0273 38.1237 35.6944 36.0461C35.0299 31.8983 33.1058 26.6694 30.0482 21.3733C26.9905 16.0773 23.4241 11.7966 20.1643 9.14718C18.5315 7.82012 17.019 6.93783 15.723 6.51858ZM21.4532 7.5614C24.9513 10.4044 28.6683 14.8964 31.8179 20.3516C34.9674 25.8068 36.999 31.2718 37.7122 35.7228C38.0681 37.9446 38.1046 39.969 37.7485 41.6341C37.3924 43.2989 36.6141 44.7179 35.2503 45.5054C33.8864 46.2928 32.2684 46.2573 30.6485 45.7332C29.0285 45.2091 27.2935 44.1653 25.5474 42.7461C22.0493 39.9031 18.3322 35.4111 15.1827 29.9559C12.0331 24.5008 10.0015 19.0357 9.28837 14.5847C8.93241 12.363 8.89592 10.3385 9.25205 8.67348C9.60816 7.0086 10.3864 5.5896 11.7503 4.80217C13.1141 4.01475 14.7321 4.05027 16.352 4.57432C17.972 5.09841 19.707 6.14225 21.4532 7.5614Z" fill="#61DAFB"/>
<path fill-rule="evenodd" clip-rule="evenodd" d="M35.7502 9.10104C35.4653 7.76897 34.9172 6.96961 34.2285 6.57202C33.5399 6.17443 32.5736 6.09944 31.2775 6.51873C29.9816 6.93797 28.469 7.82027 26.8362 9.14733C23.5764 11.7967 20.01 16.0775 16.9524 21.3735C13.8947 26.6695 11.9706 31.8984 11.3061 36.0462C10.9733 38.1238 10.9654 39.8749 11.2503 41.2068C11.5353 42.5389 12.0834 43.3382 12.772 43.7358C13.4606 44.1334 14.427 44.2084 15.723 43.7891C17.019 43.3699 18.5315 42.4876 20.1643 41.1605C23.4241 38.5111 26.9905 34.2304 30.0482 28.9343C33.1058 23.6383 35.0299 18.4094 35.6944 14.2616C36.0273 12.184 36.0351 10.433 35.7502 9.10104ZM37.7122 14.5849C36.999 19.0359 34.9674 24.5009 31.8179 29.9561C28.6683 35.4113 24.9513 39.9032 21.4532 42.7463C19.707 44.1654 17.972 45.2093 16.352 45.7334C14.7321 46.2574 13.1141 46.2929 11.7503 45.5055C10.3864 44.7181 9.60816 43.2991 9.25205 41.6342C8.89592 39.9692 8.93241 37.9447 9.28837 35.7229C10.0015 31.272 12.0331 25.8069 15.1827 20.3517C18.3322 14.8966 22.0493 10.4046 25.5474 7.56155C27.2935 6.14239 29.0285 5.09855 30.6485 4.57446C32.2684 4.05042 33.8864 4.0149 35.2503 4.80232C36.6141 5.58974 37.3924 7.00875 37.7485 8.67362C38.1046 10.3386 38.0681 12.3631 37.7122 14.5849Z" fill="#61DAFB"/>
</svg>
