<svg width="114" height="114" viewBox="0 0 114 114" fill="none" xmlns="http://www.w3.org/2000/svg">
<path d="M108.806 42.714L104.489 41.5237C103.999 41.3887 103.155 40.6041 102.985 40.1239L101.759 37.1084L101.69 36.9522C101.472 36.4884 101.518 35.3246 101.771 34.8779L103.945 31.0465C105.461 28.3748 104.967 24.7225 102.795 22.5525L92.0667 11.8227C90.7798 10.5376 88.9298 9.80029 86.9913 9.80029C85.7626 9.80029 84.5813 10.1022 83.5755 10.6734L79.9485 12.7315C79.8023 12.8145 79.3841 12.9382 78.8304 12.9382C78.3517 12.9382 78.0335 12.8448 77.932 12.7956L74.1981 11.2235L74.0411 11.1621C73.5592 10.9884 72.7695 10.1351 72.6328 9.6392L71.4059 5.19412C70.5892 2.23269 67.6575 0 64.5865 0H49.4122C46.3406 0 43.4095 2.23314 42.5941 5.19277L41.3654 9.63966C41.2287 10.1365 40.4359 10.9947 39.9522 11.1707L35.934 12.8709L35.7634 12.949C35.6628 12.9986 35.3456 13.0925 34.8664 13.0925C34.324 13.0929 33.9147 12.972 33.7703 12.8903L30.3568 10.9523C29.3501 10.381 28.1679 10.0787 26.9388 10.0787C24.9985 10.0787 23.1484 10.8169 21.8638 12.102L11.1327 22.8314C8.96138 25.0032 8.46774 28.6541 9.98387 31.3245L12.1209 35.0891C12.3758 35.5394 12.4264 36.7063 12.2102 37.1706C11.6133 38.4539 9.96898 40.915 9.18113 41.6144L5.19183 42.7145C2.23177 43.5316 0 46.4633 0 49.5344V64.7075C0 67.7772 2.23177 70.7088 5.19183 71.5265L9.50917 72.7182C10.0001 72.8536 10.8448 73.6378 11.0154 74.1175L12.3442 77.3528L12.4115 77.5053C12.6299 77.9674 12.5875 79.1234 12.3352 79.5665L10.367 83.032C8.85264 85.7015 9.34673 89.3519 11.5176 91.5251L22.2478 102.254C23.5338 103.54 25.3838 104.277 27.3232 104.277C28.5519 104.277 29.7337 103.975 30.7417 103.404L34.0632 101.519C34.2107 101.435 34.6317 101.311 35.1876 101.311C35.6669 101.311 35.9859 101.404 36.0878 101.453L39.8736 103.042L40.0347 103.105C40.5153 103.277 41.3027 104.127 41.439 104.62L42.5941 108.806C43.4099 111.766 46.3415 114 49.4126 114H64.587C67.658 114 70.5896 111.767 71.4063 108.806L72.5606 104.619C72.696 104.128 73.4802 103.285 73.9589 103.114L77.4492 101.676L77.6094 101.604C77.7109 101.556 78.0295 101.464 78.5073 101.464C79.0754 101.464 79.5063 101.591 79.6571 101.677L83.187 103.682C84.1941 104.253 85.3759 104.555 86.6055 104.555C88.5458 104.555 90.3958 103.817 91.6809 102.531L102.41 91.8026C104.582 89.6312 105.077 85.9799 103.56 83.3081L101.556 79.7795C101.306 79.3377 101.265 78.1889 101.483 77.7305L102.921 74.2745L102.982 74.1179C103.153 73.6378 103.999 72.8522 104.49 72.7168L108.809 71.5256C111.768 70.708 114 67.7763 114 64.7066V49.5348C113.999 46.4633 111.767 43.5312 108.806 42.714Z" fill="white"/>
</svg>
