<svg width="42" height="51" viewBox="0 0 42 51" fill="none" xmlns="http://www.w3.org/2000/svg">
<path d="M38.9211 6.618C34.3011 -0.0366265 25.1033 -1.98639 18.491 2.20984L6.83483 9.6698C3.65587 11.662 1.45179 14.9257 0.815997 18.6133C0.264977 21.7075 0.731224 24.8864 2.21474 27.6415C1.19747 29.1674 0.519293 30.8629 0.22259 32.6431C-0.455588 36.4155 0.434521 40.315 2.6386 43.4092C7.30108 50.0638 16.4565 52.0136 23.0687 47.8173L34.7249 40.3998C37.9039 38.4076 40.108 35.1439 40.7437 31.4563C41.2948 28.3621 40.8285 25.1831 39.345 22.428C40.3623 20.9021 41.0405 19.2067 41.3372 17.4265C42.0577 13.6117 41.1676 9.71219 38.9211 6.618Z" fill="#FF3E00"/>
<path d="M17.3467 44.0455C13.5743 45.0204 9.63241 43.5368 7.42833 40.3579C6.07197 38.4929 5.56334 36.1616 5.94481 33.8728C6.02959 33.4913 6.11436 33.1522 6.19913 32.7708L6.41106 32.0926L7.00447 32.5164C8.40321 33.5337 9.92911 34.2967 11.5822 34.8053L12.006 34.9324L11.9636 35.3563C11.9213 35.9497 12.0908 36.5855 12.4299 37.0941C13.1081 38.069 14.2949 38.5353 15.4393 38.2386C15.6936 38.1538 15.9479 38.069 16.1599 37.9419L27.7737 30.5243C28.3671 30.1428 28.7486 29.5918 28.8757 28.9136C29.0029 28.2354 28.8333 27.5149 28.4519 26.9639C27.7737 25.989 26.5869 25.5651 25.4424 25.8618C25.1881 25.9466 24.9338 26.0314 24.7219 26.1585L20.2713 28.9984C19.5508 29.4646 18.7454 29.8037 17.8977 30.0157C14.1253 30.9905 10.1834 29.507 7.97935 26.3281C6.66538 24.4631 6.11436 22.1318 6.53822 19.843C6.9197 17.6389 8.27605 15.6467 10.1834 14.4599L21.8396 7.04236C22.5602 6.57611 23.3655 6.23702 24.2132 5.98271C27.9856 5.00783 31.9275 6.49134 34.1316 9.6703C35.488 11.5353 35.9966 13.8665 35.6151 16.1554C35.5303 16.5369 35.4456 16.8759 35.3184 17.2574L35.1065 17.9356L34.5131 17.5117C33.1143 16.4945 31.5884 15.7315 29.9354 15.2229L29.5115 15.0957L29.5539 14.6719C29.5963 14.0785 29.4267 13.4427 29.0877 12.934C28.4095 11.9592 27.2227 11.5353 26.0782 11.832C25.8239 11.9168 25.5696 12.0015 25.3577 12.1287L13.7439 19.5463C13.1505 19.9277 12.769 20.4788 12.6418 21.1569C12.5147 21.8351 12.6842 22.5557 13.0657 23.1067C13.7439 24.0816 14.9307 24.5055 16.0751 24.2088C16.3294 24.124 16.5837 24.0392 16.7957 23.912L21.2462 21.0722C21.9668 20.6059 22.7721 20.2668 23.6198 20.0125C27.3922 19.0376 31.3341 20.5212 33.5382 23.7001C34.8946 25.5651 35.4032 27.8963 35.0217 30.1852C34.6402 32.3893 33.2839 34.3814 31.3765 35.5682L19.7203 42.9858C18.9997 43.4521 18.1944 43.7912 17.3467 44.0455Z" fill="white"/>
</svg>
