<svg width="297" height="297" viewBox="0 0 297 297" fill="none" xmlns="http://www.w3.org/2000/svg">
<path d="M283.468 111.281L272.22 108.18C270.945 107.829 268.746 105.784 268.302 104.533L265.108 96.6771L264.929 96.2703C264.362 95.0618 264.48 92.03 265.14 90.8662L270.805 80.8844C274.755 73.9238 273.466 64.4087 267.808 58.7553L239.858 30.8013C236.505 27.4532 231.685 25.5323 226.635 25.5323C223.434 25.5323 220.357 26.3188 217.736 27.8071L208.287 33.1689C207.906 33.3852 206.816 33.7073 205.374 33.7073C204.127 33.7073 203.298 33.464 203.033 33.3358L193.306 29.2401L192.896 29.0802C191.641 28.6276 189.584 26.4046 189.228 25.1127L186.031 13.5321C183.903 5.81675 176.266 0 168.265 0H128.732C120.73 0 113.093 5.81792 110.969 13.5285L107.768 25.1138C107.412 26.4081 105.346 28.6441 104.086 29.1026L93.6175 33.5321L93.1731 33.7355C92.911 33.8648 92.0845 34.1093 90.8361 34.1093C89.423 34.1105 88.3568 33.7955 87.9806 33.5827L79.0875 28.5336C76.4648 27.0453 73.3848 26.2577 70.1825 26.2577C65.1276 26.2577 60.3078 28.1809 56.9609 31.529L29.0036 59.4818C23.3468 65.1399 22.0607 74.6514 26.0106 81.6085L31.5781 91.4164C32.2423 92.5896 32.3739 95.6296 31.8108 96.8393C30.2556 100.183 25.9718 106.594 23.9193 108.416L13.5261 111.282C5.81436 113.411 0 121.049 0 129.05V168.58C0 176.577 5.81436 184.215 13.5261 186.345L24.7739 189.45C26.0529 189.803 28.2536 191.846 28.6979 193.095L32.16 201.524L32.3352 201.922C32.9041 203.125 32.7936 206.137 32.1365 207.292L27.0087 216.32C23.0635 223.275 24.3507 232.785 30.0064 238.447L57.9613 266.399C61.3117 269.749 66.1315 271.67 71.1841 271.67C74.3852 271.67 77.464 270.883 80.0902 269.394L88.7436 264.484C89.128 264.265 90.2248 263.942 91.6731 263.942C92.9215 263.942 93.7527 264.184 94.0183 264.312L103.881 268.452L104.301 268.616C105.553 269.065 107.604 271.277 107.959 272.563L110.969 283.468C113.094 291.181 120.732 297 128.733 297H168.266C176.267 297 183.905 291.183 186.032 283.468L189.039 272.56C189.392 271.282 191.435 269.084 192.683 268.639L201.776 264.891L202.193 264.706C202.457 264.58 203.287 264.34 204.532 264.34C206.012 264.34 207.135 264.672 207.528 264.895L216.724 270.118C219.348 271.608 222.427 272.394 225.63 272.394C230.685 272.394 235.505 270.471 238.853 267.122L266.806 239.17C272.465 233.513 273.753 224 269.802 217.04L264.581 207.847C263.928 206.696 263.821 203.703 264.39 202.508L268.137 193.505L268.295 193.097C268.741 191.846 270.944 189.799 272.225 189.446L283.475 186.343C291.186 184.213 297 176.575 297 168.578V129.051C296.996 121.049 291.182 113.41 283.468 111.281Z" fill="white"/>
</svg>
