<svg width="43" height="43" viewBox="0 0 43 43" fill="none" xmlns="http://www.w3.org/2000/svg">
<path d="M43 0H0V43H43V0Z" fill="#F7DF1E"/>
<path d="M28.8854 33.5945C29.7515 35.0087 30.8784 36.0482 32.8714 36.0482C34.5457 36.0482 35.6152 35.2114 35.6152 34.0552C35.6152 32.6696 34.5163 32.1789 32.6735 31.3728L31.6633 30.9394C28.7475 29.6972 26.8105 28.141 26.8105 24.8511C26.8105 21.8207 29.1195 19.5137 32.7281 19.5137C35.2972 19.5137 37.1441 20.4078 38.4751 22.7489L35.3285 24.7692C34.6358 23.527 33.8884 23.0376 32.7281 23.0376C31.5445 23.0376 30.7944 23.7884 30.7944 24.7692C30.7944 25.9814 31.5452 26.4722 33.2789 27.223L34.289 27.6557C37.7222 29.1279 39.6606 30.6288 39.6606 34.0033C39.6606 37.6412 36.8028 39.6343 32.9649 39.6343C29.2123 39.6343 26.7879 37.846 25.6017 35.5022L28.8854 33.5945ZM14.6114 33.9446C15.2462 35.0708 15.8236 36.0229 17.2119 36.0229C18.5394 36.0229 19.3769 35.5035 19.3769 33.4839V19.7444H23.4176V33.5385C23.4176 37.7225 20.9645 39.6267 17.3839 39.6267C14.1487 39.6267 12.2751 37.9525 11.3223 35.9359L14.6114 33.9446Z" fill="black"/>
</svg>
